<svg version="1.2" xmlns="http://www.w3.org/2000/svg" viewBox="0 0 512 512" width="512" height="512">
	<title>logo-svg</title>
	<style>
		.s0 { fill: #9ddff6 } 
		.s1 { fill: #6ba7ff } 
		.s2 { fill: #f5f5ff } 
		.s3 { fill: #e2e7fa } 
		.s4 { fill: #6b61b1 } 
		.s5 { fill: #453d81 } 
		.s6 { fill: #ff0000 } 
	</style>
	<g id="Layer">
		<g id="Layer">
			<path id="Layer" class="s0" d="m256 512q-2.3 0-4.5-0.7c-58.6-18.5-108.7-54.4-145-104c-36.3-49.5-55.5-108.1-55.5-169.5v-152.8c0-8.3 6.7-15 15-15c43.3 0 82.7-23.8 102.9-62c2.6-4.9 7.7-8 13.3-8h147.6c5.6 0 10.7 3.1 13.3 8c20.2 38.2 59.6 62 102.8 62c8.3 0 15.1 6.7 15.1 15v152.8c0 61.4-19.2 120-55.5 169.5c-36.3 49.6-86.4 85.5-145 104q-2.2 0.7-4.5 0.7z" />
			<path id="Layer" class="s1" d="m461 85v152.8c0 61.4-19.2 120-55.5 169.5c-36.3 49.6-86.4 85.5-145 104q-2.2 0.7-4.5 0.7v-512h73.8c5.6 0 10.7 3.1 13.3 8c20.2 38.2 59.6 62 102.8 62c8.3 0 15.1 6.7 15.1 15z" />
			<path id="Layer" class="s2" d="m256 448.2c-2 0-3.9-0.4-5.8-1.2c-84.6-35.2-139.2-117.4-139.2-209.2v-102.4c0-6.5 4.2-12.2 10.3-14.2c31.9-10.5 59.9-29.7 81.1-55.7c2.9-3.5 7.1-5.5 11.6-5.5h84c4.5 0 8.7 2 11.6 5.5c21.2 26 49.2 45.2 81.1 55.7c6.1 2 10.3 7.8 10.3 14.2v102.4c0 91.8-54.7 174-139.2 209.2c-1.9 0.8-3.8 1.2-5.8 1.2z" />
			<path id="Layer" class="s3" d="m401 135.4v102.4c0 91.8-54.6 174-139.2 209.2c-1.9 0.8-3.8 1.2-5.8 1.2v-388.2h42c4.5 0 8.7 2 11.6 5.5c21.2 26 49.2 45.2 81.1 55.7c6.1 2 10.3 7.8 10.3 14.2z" />
		</g>
		<path id="Layer" class="s4" d="m232.7 316.8c-3.9 0-7.7-1.5-10.6-4.4l-46.7-46.7c-5.9-5.9-5.9-15.4 0-21.2c5.9-5.9 15.3-5.9 21.2 0l36.1 36l82.7-82.7c5.9-5.8 15.4-5.8 21.2 0c5.9 5.9 5.9 15.4 0 21.2l-93.3 93.4c-3 2.9-6.8 4.4-10.6 4.4z" />
		<path id="Layer" class="s5" d="m336.6 197.8c5.9 5.9 5.9 15.4 0 21.2l-80.6 80.6v-42.4l59.4-59.4c5.9-5.8 15.3-5.8 21.2 0z" />
		<path id="Shape 1" class="s6" d="m417 186c-49.8 0-90-40.2-90-90c0-49.8 40.2-90 90-90c49.8 0 90 40.2 90 90c0 49.8-40.2 90-90 90z" />
	</g>
</svg>